<?xml version="1.0" encoding="UTF-8"?>
<svg version="1.1" xmlns="http://www.w3.org/2000/svg" width="500" height="161">
<path d="M0 0 C0.763125 0.721875 1.52625 1.44375 2.3125 2.1875 C3.240625 3.05375 3.240625 3.05375 4.1875 3.9375 C5.88063527 7.32377054 5.95371615 10.52965334 5.3125 14.1875 C3.19248046 18.00353518 0.65695899 20.04649649 -3.42578125 21.640625 C-7.42494858 22.60760846 -11.5013209 22.66437851 -15.6015625 22.78125 C-19.00188645 23.22888758 -20.85634586 24.31993165 -23.6875 26.1875 C-24.3475 26.1875 -25.0075 26.1875 -25.6875 26.1875 C-28.52610802 32.36564687 -29.89329496 37.77108096 -27.5625 44.375 C-25.26109317 47.82711024 -23.4176296 49.3576251 -19.6875 51.1875 C-15.79494151 51.86678962 -12.550403 51.55183682 -8.875 50 C-5.45431265 47.16571619 -3.82156727 44.56299541 -3.38671875 40.1015625 C-3.38285156 39.01617187 -3.37898438 37.93078125 -3.375 36.8125 C-3.06662436 31.37275366 -2.34115728 28.16743841 1.64453125 24.37109375 C4.36376776 22.44151843 5.96633739 21.98673024 9.3125 22.1875 C12.36531602 23.07361701 14.95962166 24.02539558 17.3125 26.1875 C19.18935705 31.47169115 19.63211634 36.21946856 19.6484375 41.796875 C19.6584227 43.00806 19.6584227 43.00806 19.66860962 44.24371338 C19.67868483 45.94467917 19.68342824 47.64568409 19.68310547 49.34667969 C19.68746471 51.91669701 19.7237985 54.48497475 19.76171875 57.0546875 C19.8468983 69.35246674 18.52999336 79.34284056 10.3671875 89.1171875 C2.94636559 96.59444152 -5.52365164 101.54237148 -16.11914062 101.64648438 C-16.98732422 101.63939453 -17.85550781 101.63230469 -18.75 101.625 C-19.62205078 101.64498047 -20.49410156 101.66496094 -21.39257812 101.68554688 C-27.01019337 101.68129433 -30.24354917 100.92799438 -34.6875 97.1875 C-35.29464844 96.70023437 -35.90179688 96.21296875 -36.52734375 95.7109375 C-38.51988657 93.09446713 -38.27169026 90.59590129 -38.18359375 87.4140625 C-37.30878131 83.48773894 -34.99173519 82.30221052 -31.6875 80.1875 C-28.95102229 78.81926114 -26.5526825 78.96004047 -23.5 78.8125 C-15.14373344 78.2044365 -10.43389661 76.63042953 -4.6875 70.1875 C-5.409375 70.785625 -6.13125 71.38375 -6.875 72 C-11.80020771 75.8307171 -14.92254167 77.78231177 -21.23046875 77.53125 C-30.77104679 76.19647914 -38.44234497 70.66849697 -44.9375 63.8125 C-52.05573446 53.1351483 -54.98442528 43.14033602 -53.6875 30.1875 C-51.92697003 21.78544981 -48.53270739 15.43067895 -42.6875 9.1875 C-42.16414063 8.62289062 -41.64078125 8.05828125 -41.1015625 7.4765625 C-31.74188515 -1.51785915 -11.79037445 -7.54346375 0 0 Z " fill="#E5A255" transform="translate(381.6875,44.8125)"/>
<path d="M0 0 C2.08980447 -0.0043312 4.17742054 -0.04054733 6.2668457 -0.07861328 C20.25214685 -0.19780915 30.81408512 3.64106091 41.06176758 13.24951172 C49.08867835 21.83119818 52.97470982 31.85796954 53.08911133 43.56982422 C52.42586186 57.58096916 47.37544882 67.46912814 37.37036133 77.12060547 C27.06356721 85.75982861 14.9611611 86.56343997 2.12036133 86.62060547 C0.96600586 86.64123047 -0.18834961 86.66185547 -1.37768555 86.68310547 C-7.64621553 86.71187669 -12.52900363 86.68624078 -17.94213867 83.37060547 C-21.78949862 79.46748866 -22.44789107 76.89801978 -22.47558594 71.47241211 C-22.48420151 70.79856979 -22.49281708 70.12472748 -22.50169373 69.4304657 C-22.52430841 67.21350161 -22.51762384 64.99780637 -22.50854492 62.78076172 C-22.51378287 61.23286058 -22.52005998 59.68496264 -22.52732849 58.1370697 C-22.53772453 54.89648394 -22.53318354 51.6563375 -22.51855469 48.41577148 C-22.50137433 44.27164451 -22.52485519 40.12890505 -22.56004429 35.9849329 C-22.58205154 32.78916816 -22.58056882 29.59373368 -22.57227898 26.39791679 C-22.57146113 24.87055376 -22.57829266 23.34316606 -22.59305 21.8158741 C-22.61055824 19.67579128 -22.59590703 17.53817879 -22.57324219 15.39819336 C-22.57228043 14.18305557 -22.57131866 12.96791779 -22.57032776 11.71595764 C-21.65168255 6.82381323 -19.13167101 3.94050157 -15.05371094 1.01660156 C-10.24133725 -0.45565428 -4.99772252 -0.00115755 0 0 Z M1.05786133 24.37060547 C0.95682878 27.17054144 0.91816045 29.9452919 0.92504883 32.74560547 C0.9240921 33.58526855 0.92313538 34.42493164 0.92214966 35.29003906 C0.92146785 37.06884842 0.92332216 38.84766024 0.92749023 40.62646484 C0.9328385 43.35894323 0.92754527 46.09125723 0.92114258 48.82373047 C0.92180336 50.54768917 0.92308452 52.27164776 0.92504883 53.99560547 C0.9230246 54.81851074 0.92100037 55.64141602 0.91891479 56.48925781 C0.57210673 60.23440413 0.57210673 60.23440413 2.05786133 63.37060547 C13.29077335 63.31033923 13.29077335 63.31033923 22.67114258 57.82763672 C26.54900711 53.6351006 29.01668306 49.91193666 29.08520508 44.01904297 C28.75665857 38.44217657 27.85594132 33.62315658 24.05786133 29.37060547 C18.57649789 25.0372894 13.84625173 23.22499723 6.87036133 23.24560547 C5.98993164 23.24302734 5.10950195 23.24044922 4.20239258 23.23779297 C2.07582942 23.13195514 2.07582942 23.13195514 1.05786133 24.37060547 Z " fill="#2E365B" transform="translate(37.942138671875,36.62939453125)"/>
<path d="M0 0 C7.48300788 5.33779483 13.46344158 12.70736107 15.87646484 21.75146484 C16.48223958 25.74581301 16.49895639 29.6798306 16.51953125 33.71484375 C16.52523132 34.58375244 16.5309314 35.45266113 16.5368042 36.34790039 C16.54622468 38.18016349 16.55277641 40.01244332 16.55664062 41.84472656 C16.56637332 44.64287743 16.59743513 47.44030166 16.62890625 50.23828125 C16.63543448 52.02213107 16.64068566 53.80598613 16.64453125 55.58984375 C16.65687805 56.42330322 16.66922485 57.2567627 16.6819458 58.11547852 C16.6600265 63.84391835 15.59025314 67.11612992 11.69140625 71.46484375 C7.92113578 73.34997898 4.43458661 73.37046061 0.31640625 72.65234375 C-2.74609375 71.02734375 -2.74609375 71.02734375 -4.68359375 67.65234375 C-4.92958794 63.90729435 -4.8681719 60.28620293 -4.6640625 56.5390625 C-4.67373047 55.11013672 -4.67373047 55.11013672 -4.68359375 53.65234375 C-5.34359375 53.65234375 -6.00359375 53.65234375 -6.68359375 53.65234375 C-6.6680873 57.02111936 -6.52365191 60.34401123 -6.25390625 63.70117188 C-6.16796875 65.859375 -6.16796875 65.859375 -6.68359375 69.65234375 C-13.04195106 74.23734418 -21.12176841 74.31113914 -28.68359375 73.65234375 C-40.42792572 71.41464943 -50.6530969 65.74300097 -57.47265625 55.73046875 C-63.34245706 45.65713317 -65.19045793 35.54028842 -63.22265625 23.93359375 C-60.41998117 13.51423697 -54.62558459 4.75840729 -45.68359375 -1.34765625 C-29.96198044 -9.29745317 -15.08403855 -9.6547289 0 0 Z M-38.68359375 24.65234375 C-40.2263788 29.28069889 -40.18838149 33.81882825 -39.68359375 38.65234375 C-37.68119725 42.65713675 -35.50360498 45.31104655 -31.68359375 47.65234375 C-25.88273765 49.58596245 -19.78541915 49.64593394 -14.24609375 47.02734375 C-10.39253785 43.45575535 -8.16044229 40.3689985 -6.74609375 35.27734375 C-6.64382904 29.34599046 -8.29646283 25.33150223 -12.05859375 20.77734375 C-16.47394212 17.20301411 -19.95678873 16.22963909 -25.69921875 16.40234375 C-31.35590596 17.11499726 -35.0546411 20.5049693 -38.68359375 24.65234375 Z " fill="#489DD3" transform="translate(190.68359375,49.34765625)"/>
<path d="M0 0 C7.91568756 6.14331981 14.12197648 14.26656285 16.00390625 24.21875 C17.5864024 37.13270007 15.6791395 47.37351615 8.3984375 58.1875 C1.95697601 66.2877589 -6.45025717 71.50638723 -16.625 73.328125 C-28.29985928 74.65684939 -37.71808512 72.01132508 -47.6796875 65.80078125 C-55.06657901 59.89126804 -61.77740456 51.23903123 -63.6796875 41.80078125 C-64.74968145 29.52194822 -63.50137889 18.53469122 -55.42578125 8.70703125 C-40.43156206 -7.66249664 -19.29268909 -12.49992557 0 0 Z M-36.4921875 22.86328125 C-40.36149489 28.05920832 -40.31901787 32.43449153 -39.6796875 38.80078125 C-37.37111774 43.6842942 -34.45649935 46.32051356 -29.6796875 48.80078125 C-23.65200194 50.25909227 -19.08877667 50.00917033 -13.6796875 46.80078125 C-10.29689315 43.81193257 -7.70584391 40.21325383 -6.6796875 35.80078125 C-6.49716528 30.12111938 -7.56499907 25.6917002 -11.16796875 21.2421875 C-14.7641949 17.81322768 -18.90178518 16.65671648 -23.7421875 16.42578125 C-29.40069342 16.96468658 -32.82317288 18.57577559 -36.4921875 22.86328125 Z " fill="#2A3258" transform="translate(307.6796875,49.19921875)"/>
<path d="M0 0 C7.60795545 7.60795545 13.01813732 16.32264623 13.26928711 27.24462891 C13.25973999 28.3610376 13.25973999 28.3610376 13.25 29.5 C13.24427979 30.2842334 13.23855957 31.0684668 13.23266602 31.87646484 C12.93441191 41.67165203 9.5775254 49.82943002 2.765625 56.9375 C-6.36776302 65.15046907 -14.82977194 69.33712818 -27.125 69.1875 C-28.00978027 69.17847656 -28.89456055 69.16945313 -29.80615234 69.16015625 C-42.24199407 68.82981845 -50.41949935 63.78975013 -59.03515625 54.91015625 C-65.83194962 46.68794841 -69.14096027 36.48428562 -68.66796875 25.88671875 C-67.06914334 13.888057 -60.9183021 5.80798687 -52.08203125 -2 C-50.25 -3.25 -50.25 -3.25 -47.25 -3.25 C-46.92 -4.24 -46.59 -5.23 -46.25 -6.25 C-30.67894492 -14.94600689 -13.52352 -9.36243693 0 0 Z M-18.25 1.75 C-18.5809316 5.35030189 -18.5809316 5.35030189 -17.25 8.75 C-15.08333333 10.58333333 -15.08333333 10.58333333 -12.25 10.75 C-9.33921756 9.92020292 -9.33921756 9.92020292 -7.25 7.75 C-6.41666667 4.75 -6.41666667 4.75 -7.25 1.75 C-11.831895 -1.77453462 -13.70465905 -1.9580413 -18.25 1.75 Z M-39.5625 19.125 C-42.53254778 23.74507432 -43.53573743 26.26118069 -42.625 31.75 C-41.3661769 37.14610159 -39.31480529 40.08668462 -35 43.5625 C-30.07771113 45.68803383 -25.94601907 45.38185024 -21.0625 43.5625 C-16.95692396 40.91668433 -13.81864831 38.45594492 -12.25 33.75 C-11.61806405 28.40444341 -11.85001939 23.83463355 -14.8515625 19.2578125 C-18.24198107 15.60222153 -22.46205188 14.00542116 -27.3125 13.3125 C-32.30169474 14.05557156 -36.01600233 15.48265104 -39.5625 19.125 Z M-55.5625 42.8125 C-57.62518734 44.77004974 -57.62518734 44.77004974 -57.375 48.3125 C-56.61634423 51.98481167 -56.61634423 51.98481167 -53.375 53.25 C-50.22996356 54.00006513 -50.22996356 54.00006513 -47.25 52.75 C-45.86748691 50.19235079 -45.18755507 48.47852421 -45.4375 45.5625 C-46.22036438 43.38528189 -46.22036438 43.38528189 -49.25 41.75 C-53.06836696 41.47166655 -53.06836696 41.47166655 -55.5625 42.8125 Z M-9.25 43.75 C-10.00011367 47.20728358 -10.00011367 47.20728358 -9.25 50.75 C-7.17836371 52.99300635 -7.17836371 52.99300635 -4.25 53.75 C-1.43031152 53.50548759 -1.43031152 53.50548759 0.75 51.75 C2.00329784 48.89710302 2.00329784 48.89710302 1.75 45.75 C0.12419918 43.29047777 0.12419918 43.29047777 -2.25 41.75 C-5.44356019 41.75 -6.76156094 41.7764104 -9.25 43.75 Z " fill="#E5BD5C" transform="translate(472.25,53.25)"/>
<path d="M0 0 C2.6697485 2.15063074 3.77788983 3.70071382 5.25 6.8125 C5.5405407 9.76503256 5.67055554 12.50443216 5.65405273 15.45483398 C5.66091599 16.31399414 5.66777924 17.1731543 5.67485046 18.05834961 C5.69311748 20.89193353 5.68928108 23.72496371 5.68359375 26.55859375 C5.68815564 28.53247762 5.69346123 30.5063599 5.69947815 32.48023987 C5.7084091 36.61522884 5.70598632 40.75002468 5.69604492 44.88500977 C5.68455609 50.17902323 5.70476563 55.4723696 5.73396206 60.76629543 C5.75232497 64.84215008 5.75203139 68.91784491 5.74632454 72.99373055 C5.74617133 74.94533283 5.75221518 76.89694595 5.76461601 78.84850883 C5.77952564 81.57968638 5.76884929 84.30963199 5.75170898 87.04077148 C5.76137695 87.84356033 5.77104492 88.64634918 5.78100586 89.47346497 C5.71242945 94.70261787 4.66830061 97.63802415 1.25 101.8125 C-1.71524055 104.14233186 -4.98963379 104.29576585 -8.71875 104.19140625 C-12.40247799 103.5042493 -14.28937388 101.50747146 -16.75 98.8125 C-18.79700282 94.06285866 -19.04139517 89.61264524 -19.0246582 84.515625 C-19.02976913 83.70508667 -19.03488007 82.89454834 -19.04014587 82.05944824 C-19.05398848 79.39372267 -19.0530894 76.72825713 -19.05078125 74.0625 C-19.05467057 72.20214747 -19.05900573 70.34179582 -19.06376648 68.48144531 C-19.07121681 64.5878613 -19.07094562 60.69436798 -19.06567383 56.80078125 C-19.05987497 51.81742174 -19.07682601 46.8344334 -19.1000185 41.85113525 C-19.11476547 38.01120848 -19.11562633 34.17137097 -19.11250877 30.3314209 C-19.11302131 28.49425521 -19.11824631 26.65708443 -19.12832069 24.81994629 C-19.14068913 22.24951167 -19.13389164 19.6797985 -19.12231445 17.109375 C-19.12995819 16.35491089 -19.13760193 15.60044678 -19.14547729 14.82312012 C-19.09028631 9.26519398 -17.7994492 5.28891779 -14.25 1 C-10.12139027 -2.26848271 -4.62282212 -1.99621864 0 0 Z " fill="#31395D" transform="translate(232.75,18.1875)"/>
<path d="M0 0 C3.41884518 2.10156185 5.70120074 4.10360223 7 8 C7.10819548 9.85431016 7.15881948 11.71220509 7.17700195 13.56958008 C7.18983719 14.71119095 7.20267242 15.85280182 7.21589661 17.02900696 C7.22328354 18.26337997 7.23067047 19.49775299 7.23828125 20.76953125 C7.246353 22.03842697 7.25442474 23.30732269 7.26274109 24.6146698 C7.27658158 27.30215099 7.28759815 29.98950953 7.29516602 32.67700195 C7.30622236 36.1102494 7.34061869 39.54284726 7.38033772 42.97586536 C7.41285373 46.26118926 7.41728678 49.54657098 7.42578125 52.83203125 C7.44328934 54.06033157 7.46079742 55.2886319 7.47883606 56.55415344 C7.46253212 62.96895385 7.44454056 67.18001094 3 72 C-0.41457004 74.59036348 -3.83282171 74.43108741 -8 74 C-12.41048161 71.87957615 -14.57954086 69.76296947 -16.40216064 65.21533203 C-17.65841739 60.56019217 -17.42484613 55.75769079 -17.3984375 50.96875 C-17.40130768 49.81886597 -17.40417786 48.66898193 -17.40713501 47.48425293 C-17.40917067 45.06029771 -17.40367581 42.63632587 -17.39111328 40.21240234 C-17.37505347 36.51231994 -17.39097992 32.81332987 -17.41015625 29.11328125 C-17.40817373 26.75260177 -17.40432988 24.39192296 -17.3984375 22.03125 C-17.40451019 20.93002808 -17.41058289 19.82880615 -17.4168396 18.69421387 C-17.3621634 12.69275864 -16.94681519 8.27675054 -14 3 C-9.57121416 -1.15198672 -5.80624305 -1.37775259 0 0 Z " fill="#489DD3" transform="translate(114,48)"/>
<path d="M0 0 C4.82978752 0.86246206 7.84990761 2.81812923 11.14453125 6.42578125 C13.63958539 10.47395267 13.13582775 15.03746863 12.5 19.625 C10.625 22.5 10.625 22.5 8.5 24.625 C6.30301897 28.12019709 6.44665932 30.66602421 7.0625 34.625 C8.13169637 39.27427968 9.73901481 41.58039294 13.5 44.625 C16.03004001 46.76342723 17.34161555 47.94009253 18.09692383 51.20629883 C18.21480925 54.28517322 18.29204557 57.35631829 18.3125 60.4375 C18.36986328 61.52482422 18.42722656 62.61214844 18.48632812 63.73242188 C18.54226419 68.95421821 18.54226419 68.95421821 17.5 71.625 C11.94378823 73.24439116 5.69185157 69.72329155 0.91796875 67.1328125 C-9.63814102 60.5501657 -16.64142964 50.76589433 -19.5 38.625 C-20.7532225 28.13885257 -18.82464122 18.92673833 -12.625 10.3125 C-11.601387 9.06825864 -10.5600373 7.83835941 -9.5 6.625 C-9.01402344 6.02300781 -8.52804687 5.42101563 -8.02734375 4.80078125 C-5.46576828 1.87033892 -3.86030591 0.68934034 0 0 Z M-6.8125 45.6875 C-8.87518734 47.64504974 -8.87518734 47.64504974 -8.625 51.1875 C-7.86634423 54.85981167 -7.86634423 54.85981167 -4.625 56.125 C-1.47996356 56.87506513 -1.47996356 56.87506513 1.5 55.625 C2.88251309 53.06735079 3.56244493 51.35352421 3.3125 48.4375 C2.52963562 46.26028189 2.52963562 46.26028189 -0.5 44.625 C-4.31836696 44.34666655 -4.31836696 44.34666655 -6.8125 45.6875 Z " fill="#55A3CF" transform="translate(423.5,50.375)"/>
<path d="M0 0 C3.18718342 1.62929336 5.2152476 3.96555366 7.375 6.8125 C8.82967873 11.90387555 8.66421268 15.64602799 6.375 20.3125 C2.80635297 24.35070586 -0.17079706 25.77134963 -5.5 26.4375 C-9.68516315 25.91435461 -11.72376421 24.60609665 -15 22 C-15.54140625 21.58105469 -16.0828125 21.16210938 -16.640625 20.73046875 C-19.15218764 17.53327837 -18.51531748 13.79251961 -18.42578125 9.890625 C-18 7 -18 7 -15.6875 3.875 C-10.15214086 0.01312153 -6.72856029 -1.03596807 0 0 Z " fill="#E4BF51" transform="translate(114,17)"/>
<path d="M0 0 C3.91726235 2.10929511 6.66753531 4.21562645 9 8 C9.83126138 13.02501246 9.94088953 17.55730272 7.125 21.875 C6.42375 22.57625 5.7225 23.2775 5 24 C4.71125 24.928125 4.4225 25.85625 4.125 26.8125 C3.75375 27.534375 3.3825 28.25625 3 29 C-0.48417474 29.60594343 -2.30737444 29.40099375 -5.375 27.625 C-5.91125 27.08875 -6.4475 26.5525 -7 26 C-7 25.34 -7 24.68 -7 24 C-7.66 24 -8.32 24 -9 24 C-8.1875 22.125 -8.1875 22.125 -7 20 C-5.537042 17.074084 -5.55476891 15.24382653 -6 12 C-7.40195712 10.58382229 -7.40195712 10.58382229 -9.125 9.375 C-10.07375 8.59125 -11.0225 7.8075 -12 7 C-11.5625 4.875 -11.5625 4.875 -10 3 C-9.608125 2.4225 -9.21625 1.845 -8.8125 1.25 C-5.83448055 -0.80380652 -3.51671307 -0.41723714 0 0 Z " fill="#2E3455" transform="translate(427,51)"/>
<path d="M0 0 C2.6875 0.8125 2.6875 0.8125 5 3 C5.8971875 3.6496875 5.8971875 3.6496875 6.8125 4.3125 C8.68347735 6.97125728 8.44320143 8.8342755 8 12 C6.40625 14.640625 6.40625 14.640625 4 17 C-0.42231852 18.06549429 -4.60102736 18.26637091 -9 17 C-9.76049267 13.60820269 -7.68378369 10.85149861 -6 8 C-5.53464844 7.18015625 -5.06929688 6.3603125 -4.58984375 5.515625 C-3.20187341 3.36889754 -1.97448205 1.6263366 0 0 Z " fill="#E0BF5D" transform="translate(414,57)"/>
<path d="M0 0 C3.5625 0 3.5625 0 7 1 C8.0625 3.875 8.0625 3.875 8 7 C7.01 8.485 7.01 8.485 6 10 C2.81040219 10.4071827 0.83999753 10.51483719 -1.9375 8.8125 C-3 7 -3 7 -2.8125 4.4375 C-2 2 -2 2 0 0 Z " fill="#55A6DA" transform="translate(26,45)"/>
<path d="M0 0 C2 1 2 1 2 1 Z M-1 1 C-1 1.99 -1 2.98 -1 4 C-1.73669922 4.680625 -1.73669922 4.680625 -2.48828125 5.375 C-4.22636916 6.9248883 -4.22636916 6.9248883 -4.29296875 9.375 C-4.25816406 10.24125 -4.22335938 11.1075 -4.1875 12 C-4.16042969 12.86625 -4.13335937 13.7325 -4.10546875 14.625 C-4.07066406 15.40875 -4.03585938 16.1925 -4 17 C-4 17.99 -4 18.98 -4 20 C-6.65822762 17.34177238 -6.35980571 15.8939746 -6.4375 12.1875 C-6.39383753 8.16084964 -6.3614616 5.52934121 -3.5 2.5625 C-2.2625 1.7890625 -2.2625 1.7890625 -1 1 Z " fill="#EAD7A1" transform="translate(102,18)"/>
</svg>
